<svg width="1000" height="1000" xmlns="http://www.w3.org/2000/svg">
 <metadata>Svg Vector Icons : http://www.onlinewebfonts.com/icon</metadata>

 <g>
  <title>background</title>
  <rect fill="none" id="canvas_background" height="602" width="802" y="-1" x="-1"/>
 </g>
 <g>
  <title>Layer 1</title>
  <g id="svg_1">
   <path fill="#d29500" id="svg_2" d="m500,990c270.6,0 490,-219.4 490,-490c0,-270.6 -219.4,-490 -490,-490c-270.6,0 -490,219.4 -490,490c0,270.6 219.4,490 490,490zm0,-888.1c219.9,0 398.1,178.3 398.1,398.1s-178.2,398.1 -398.1,398.1s-398.1,-178.2 -398.1,-398.1s178.2,-398.1 398.1,-398.1zm29.4,588.6c134.2,-26.5 238.4,-87.6 276.1,-169c-20.7,160.7 -154.6,284.8 -316.6,284.8c-114.1,0 -214.2,-61.5 -270.7,-154c67.3,52.6 186.1,62.9 311.2,38.2l0,0zm93.1,-343.6c0,-50.7 27.4,-91.9 61.3,-91.9s61.3,41.1 61.3,91.9c0,50.7 -27.4,91.9 -61.3,91.9s-61.3,-41.2 -61.3,-91.9zm-275.6,18.6c-40,0 -74,15 -86.6,35.9c-3.4,-5.6 -5.3,-30.8 -5.3,-37.1c0,-29.7 41.1,-53.8 91.9,-53.8c50.7,0 91.9,24.1 91.9,53.8c0,6.3 -1.9,31.5 -5.3,37.1c-12.6,-20.9 -46.6,-35.9 -86.6,-35.9z"/>
  </g>
 </g>
</svg>