<?xml version="1.0" encoding="utf-8"?>
<!-- Svg Vector Icons : http://www.onlinewebfonts.com/icon -->
<!DOCTYPE svg PUBLIC "-//W3C//DTD SVG 1.1//EN" "http://www.w3.org/Graphics/SVG/1.1/DTD/svg11.dtd">
<svg version="1.1" xmlns="http://www.w3.org/2000/svg" xmlns:xlink="http://www.w3.org/1999/xlink" x="0px" y="0px" viewBox="0 0 1000 1000" enable-background="new 0 0 1000 1000" xml:space="preserve">
<metadata> Svg Vector Icons : http://www.onlinewebfonts.com/icon </metadata>
<g><path d="M500,990c270.6,0,490-219.4,490-490c0-270.6-219.4-490-490-490C229.4,10,10,229.4,10,500C10,770.6,229.4,990,500,990z M500,101.9c219.9,0,398.1,178.3,398.1,398.1S719.9,898.1,500,898.1S101.9,719.9,101.9,500S280.1,101.9,500,101.9z M529.4,690.5c134.2-26.5,238.4-87.6,276.1-169c-20.7,160.7-154.6,284.8-316.6,284.8c-114.1,0-214.2-61.5-270.7-154C285.5,704.9,404.3,715.2,529.4,690.5L529.4,690.5z M622.5,346.9c0-50.7,27.4-91.9,61.3-91.9s61.3,41.1,61.3,91.9c0,50.7-27.4,91.9-61.3,91.9S622.5,397.6,622.5,346.9z M346.9,365.5c-40,0-74,15-86.6,35.9c-3.4-5.6-5.3-30.8-5.3-37.1c0-29.7,41.1-53.8,91.9-53.8c50.7,0,91.9,24.1,91.9,53.8c0,6.3-1.9,31.5-5.3,37.1C420.9,380.5,386.9,365.5,346.9,365.5z"/></g>
</svg>